# xmcd
#
# Track frame offsets:
#	150
#	18355
#	38372
#	58702
#
# Disc length: 1047 seconds
#
# Revision: 4
# Processed by: cddbd v1.5.2PL0 Copyright (c) Steve Scherf et al.
# Submitted via: audiograbber 1.83.01
#
DISCID=24041504
DTITLE=New Kids On The Block - If you go away
DYEAR=1991
DGENRE=Pop
TTITLE0=If you go away
TTITLE1=Didn't I (blow your mind)
TTITLE2=Please don't go girl
TTITLE3=I'll be loving you (forever)
EXTD=
EXTT0=
EXTT1=
EXTT2=
EXTT3=
PLAYORDER=
